<svg width="32" height="35" viewBox="0 0 32 35" fill="none" xmlns="http://www.w3.org/2000/svg">
<rect y="2" width="32" height="32" rx="16" fill="black"/>
<path d="M16.751 25.1923C16.7683 25.5304 17.3535 25.7949 18.5066 25.9856C18.7927 26.5578 18.7754 27.1084 18.4546 27.6372C14.7785 27.5159 11.9998 27.4899 10.1184 27.5592C9.79764 27.0477 9.7803 26.5232 10.0664 25.9856C11.523 25.7949 12.2599 25.5304 12.2772 25.1923C12.3119 24.334 12.3293 21.694 12.3293 17.2723H10.7297C10.4435 16.5874 10.4435 15.9241 10.7297 15.2825H12.3293V14.4502C12.3293 12.2914 12.8885 10.462 14.0069 8.96213C15.1253 7.45355 16.7206 6.69927 18.7927 6.69927C19.8418 6.69927 20.7261 6.9767 21.4457 7.53158C22.1653 8.07779 22.5252 8.80607 22.5252 9.71641C22.5252 10.2973 22.3257 10.8045 21.9269 11.238C21.5281 11.6628 21.0079 11.8752 20.3663 11.8752C19.8375 11.8752 19.4256 11.7409 19.1309 11.4721C18.8361 11.2033 18.6887 10.8652 18.6887 10.4577C18.6887 9.72942 18.9488 9.26124 19.469 9.05316C19.2522 8.92311 18.9401 8.85809 18.5326 8.85809C17.9864 8.95346 17.5356 9.2309 17.1801 9.69041C16.8246 10.1499 16.6469 10.7265 16.6469 11.4201V15.2825H19.2999C19.586 15.9761 19.586 16.6394 19.2999 17.2723H16.6469C16.6469 21.3212 16.6816 23.9612 16.751 25.1923ZM18.5326 8.0908C19.3996 8.0908 20.0239 8.24686 20.4053 8.55897C20.7868 8.87109 20.9776 9.23957 20.9776 9.6644C20.9776 10.28 20.7565 10.6614 20.3143 10.8088C20.1929 10.9822 20.1929 11.186 20.3143 11.4201C20.7738 11.4201 21.1683 11.2467 21.4978 10.8999C21.8272 10.5531 21.9919 10.1586 21.9919 9.71641C21.9919 8.9708 21.6842 8.37257 21.0686 7.92173C20.4617 7.46222 19.7031 7.23247 18.7927 7.23247C16.894 7.23247 15.4288 7.9304 14.3971 9.32627C13.374 10.7221 12.8625 12.4301 12.8625 14.4502V15.8157H11.1068C10.9768 16.1018 10.9768 16.414 11.1068 16.7521H12.8625C12.8625 21.5379 12.8451 24.36 12.8105 25.2183C12.7931 25.8599 12.0562 26.2761 10.5996 26.4668C10.4696 26.7009 10.4696 26.9046 10.5996 27.078C12.8711 26.974 15.3464 26.974 18.0254 27.078C18.1468 26.9046 18.1468 26.7009 18.0254 26.4668C15.9707 26.2761 14.9303 25.8599 14.9042 25.2183C14.8349 23.8658 14.8002 21.0437 14.8002 16.7521H18.7927C18.9228 16.466 18.9228 16.1539 18.7927 15.8157H14.8002V12.0313C14.8002 10.9822 15.1643 10.0632 15.8926 9.27425C16.6209 8.48528 17.5009 8.0908 18.5326 8.0908Z" fill="#DB6310"/>
</svg>
