<svg width="64" height="64" viewBox="0 0 64 64" fill="none" xmlns="http://www.w3.org/2000/svg">
<rect width="64" height="64" rx="32" fill="black"/>
<path d="M33.5019 48.3846C33.5366 49.0609 34.707 49.5897 37.0132 49.9712C37.5855 51.1157 37.5508 52.2167 36.9092 53.2745C29.5571 53.0317 23.9996 52.9797 20.2369 53.1184C19.5953 52.0954 19.5606 51.0463 20.1328 49.9712C23.0459 49.5897 24.5198 49.0609 24.5545 48.3846C24.6239 46.668 24.6585 41.388 24.6585 32.5446H21.4593C20.8871 31.1747 20.8871 29.8482 21.4593 28.5651H24.6585V26.9004C24.6585 22.5828 25.777 18.9241 28.0138 15.9243C30.2507 12.9071 33.4412 11.3985 37.5855 11.3985C39.6836 11.3985 41.4523 11.9534 42.8915 13.0632C44.3307 14.1556 45.0503 15.6121 45.0503 17.4328C45.0503 18.5946 44.6515 19.609 43.8539 20.476C43.0562 21.3256 42.0158 21.7505 40.7327 21.7505C39.6749 21.7505 38.8513 21.4817 38.2617 20.9442C37.6722 20.4066 37.3774 19.7304 37.3774 18.9154C37.3774 17.4588 37.8976 16.5225 38.938 16.1063C38.5045 15.8462 37.8802 15.7162 37.0653 15.7162C35.9728 15.9069 35.0712 16.4618 34.3602 17.3808C33.6493 18.2998 33.2938 19.4529 33.2938 20.8401V28.5651H38.5998C39.1721 29.9523 39.1721 31.2788 38.5998 32.5446H33.2938C33.2938 40.6423 33.3632 45.9224 33.5019 48.3846ZM37.0653 14.1816C38.7993 14.1816 40.0477 14.4937 40.8107 15.1179C41.5736 15.7422 41.9551 16.4791 41.9551 17.3288C41.9551 18.5599 41.513 19.3229 40.6286 19.6177C40.3859 19.9645 40.3859 20.3719 40.6286 20.8401C41.5476 20.8401 42.3366 20.4933 42.9955 19.7997C43.6544 19.1061 43.9839 18.3172 43.9839 17.4328C43.9839 15.9416 43.3683 14.7451 42.1372 13.8435C40.9234 12.9244 39.4062 12.4649 37.5855 12.4649C33.788 12.4649 30.8576 13.8608 28.7941 16.6525C26.748 19.4443 25.7249 22.8602 25.7249 26.9004V29.6315H22.2136C21.9535 30.2037 21.9535 30.8279 22.2136 31.5042H25.7249C25.7249 41.0758 25.6903 46.72 25.6209 48.4366C25.5862 49.7198 24.1123 50.5521 21.1992 50.9336C20.9391 51.4018 20.9391 51.8093 21.1992 52.1561C25.7423 51.948 30.6928 51.948 36.0509 52.1561C36.2936 51.8093 36.2936 51.4018 36.0509 50.9336C31.9413 50.5521 29.8605 49.7198 29.8085 48.4366C29.6698 45.7316 29.6004 40.0875 29.6004 31.5042H37.5855C37.8456 30.932 37.8456 30.3077 37.5855 29.6315H29.6004V22.0626C29.6004 19.9645 30.3287 18.1264 31.7853 16.5485C33.2418 14.9706 35.0018 14.1816 37.0653 14.1816Z" fill="#DB6310"/>
</svg>
